<?xml version="1.0" encoding="utf-8"?>
<!-- Generator: Adobe Illustrator 18.0.0, SVG Export Plug-In . SVG Version: 6.00 Build 0)  -->
<!DOCTYPE svg PUBLIC "-//W3C//DTD SVG 1.1//EN" "http://www.w3.org/Graphics/SVG/1.1/DTD/svg11.dtd">
<svg version="1.1" id="Layer_1" xmlns="http://www.w3.org/2000/svg" xmlns:xlink="http://www.w3.org/1999/xlink" x="0px" y="0px"
	 viewBox="0 0 500 500" enable-background="new 0 0 500 500" xml:space="preserve">
<g>
	<path fill="#53A8C7" d="M248.4,212.5c1.6,0,3.1,0,4.7-1.6c1.6-1.6,1.6-3.1,1.6-4.7v-37.5c0-1.6,0-3.1-1.6-3.1
		c-1.6-1.6-3.1-1.6-4.7-1.6c-1.6,0-3.1,0-4.7,1.6c-1.6,1.6-1.6,1.6-1.6,3.1v37.5c0,1.6,0,3.1,1.6,4.7
		C243.8,210.9,245.3,212.5,248.4,212.5z"/>
	<path fill="#53A8C7" d="M279.7,282.8c-1.6,0-3.1,0-6.2,1.6c-1.6,1.6-3.1,3.1-4.7,4.7v-28.1h-12.5v85.9h12.5v-4.7
		c1.6,1.6,3.1,3.1,4.7,4.7c1.6,1.6,4.7,1.6,6.2,1.6c3.1,0,6.2-1.6,7.8-3.1c1.6-3.1,3.1-6.2,3.1-10.9V300c0-4.7-1.6-9.4-3.1-12.5
		C285.9,282.8,282.8,282.8,279.7,282.8z M278.1,331.2c0,1.6,0,3.1-1.6,4.7c0,1.6-1.6,1.6-3.1,1.6s-1.6,0-3.1,0
		c-1.6,0-1.6-1.6-3.1-1.6v-39.1c1.6-1.6,1.6-1.6,3.1-1.6c1.6,0,1.6,0,3.1,0s3.1,0,4.7,1.6s1.6,3.1,1.6,4.7v29.7H278.1z"/>
	<polygon fill="#53A8C7" points="160.9,273.4 175,273.4 175,346.9 189.1,346.9 189.1,273.4 204.7,273.4 204.7,260.9 160.9,260.9 	
		"/>
	<path fill="#53A8C7" d="M232.8,331.2c-1.6,1.6-3.1,3.1-4.7,3.1c-1.6,1.6-3.1,1.6-3.1,1.6c-1.6,0-1.6,0-3.1-1.6c0,0,0-1.6,0-3.1
		v-48.4h-12.5v53.1c0,3.1,0,6.2,1.6,7.8s3.1,3.1,6.2,3.1c3.1,0,4.7,0,7.8-1.6c3.1-1.6,4.7-3.1,7.8-6.2v6.2h12.5v-64.1h-12.5V331.2z"
		/>
	<path fill="#53A8C7" d="M250,0C112.5,0,0,112.5,0,250s112.5,250,250,250s250-112.5,250-250S387.5,0,250,0z M279.7,153.1h14.1v53.1
		c0,1.6,0,3.1,1.6,3.1c0,0,1.6,1.6,3.1,1.6s3.1,0,4.7-1.6c1.6-1.6,3.1-1.6,4.7-3.1v-53.1h14.1v70.3h-14.1v-7.8
		c-3.1,3.1-4.7,4.7-7.8,6.2c-3.1,1.6-6.2,1.6-7.8,1.6c-3.1,0-6.2-1.6-7.8-3.1c-1.6-1.6-3.1-4.7-3.1-9.4v-57.8H279.7z M226.6,168.8
		c0-4.7,1.6-9.4,6.2-12.5c3.1-3.1,9.4-4.7,15.6-4.7c6.2,0,10.9,1.6,14.1,4.7s6.2,7.8,6.2,12.5v35.9c0,6.2-1.6,10.9-6.2,14.1
		c-3.1,3.1-9.4,4.7-15.6,4.7c-6.2,0-10.9-1.6-15.6-4.7c-3.1-3.1-6.2-7.8-6.2-14.1v-35.9H226.6z M189.1,128.1l10.9,37.5h1.6l9.4-37.5
		h15.6l-18.8,54.7v39.1h-15.6v-37.5l-20.3-56.3H189.1z M375,326.6c0,25-20.3,45.3-45.3,45.3H170.3c-25,0-45.3-20.3-45.3-45.3v-35.9
		c0-25,20.3-45.3,45.3-45.3h159.4c25,0,45.3,20.3,45.3,45.3L375,326.6L375,326.6z"/>
	<path fill="#53A8C7" d="M317.2,281.2c-6.2,0-10.9,1.6-14.1,4.7c-3.1,3.1-4.7,7.8-4.7,14.1v28.1c0,6.2,1.6,10.9,4.7,14.1
		s7.8,4.7,14.1,4.7c6.2,0,10.9-1.6,14.1-4.7c3.1-3.1,4.7-7.8,4.7-14.1V325h-12.5v3.1c0,3.1,0,6.2-1.6,7.8s-1.6,1.6-4.7,1.6
		c-1.6,0-3.1,0-4.7-1.6c-1.6-1.6-1.6-3.1-1.6-6.2v-12.5h23.4v-15.6c0-6.2-1.6-10.9-4.7-14.1C328.1,282.8,323.4,281.2,317.2,281.2z
		 M321.9,306.2h-10.9V300c0-3.1,0-4.7,1.6-6.2c1.6-1.6,1.6-1.6,4.7-1.6c1.6,0,3.1,0,4.7,1.6c1.6,1.6,1.6,3.1,1.6,6.2v6.2H321.9z"/>
</g>
<rect x="97" y="106" fill="#53A8C7" width="305" height="288"/>
<path fill="#EDEAE7" d="M326.4,125.9H174.2c-26.4,0-48,21.5-48,47.9v50.6v101.6c0,26.4,21.5,47.9,48,47.9h152.2
	c26.4,0,48-21.5,48-47.9V224.5v-50.6C374.4,147.4,352.9,125.9,326.4,125.9z M340.2,154.5l5.5,0v5.5v36.6l-41.9,0.1l-0.1-42.1
	L340.2,154.5z M214.9,224.5c7.9-11,20.8-18.2,35.4-18.2c14.6,0,27.5,7.2,35.4,18.2c5.2,7.2,8.3,16,8.3,25.5
	c0,24.1-19.6,43.7-43.7,43.7s-43.7-19.6-43.7-43.7C206.7,240.4,209.8,231.7,214.9,224.5z M350.2,326.1c0,13.1-10.7,23.8-23.8,23.8
	H174.2c-13.1,0-23.8-10.7-23.8-23.8V224.5h37c-3.2,7.9-5,16.5-5,25.5c0,37.4,30.4,67.8,67.8,67.8c37.4,0,67.8-30.4,67.8-67.8
	c0-9-1.8-17.6-5-25.5h37V326.1z"/>
</svg>
