<?xml version="1.0" encoding="utf-8"?>
<!-- Generator: Adobe Illustrator 18.0.0, SVG Export Plug-In . SVG Version: 6.00 Build 0)  -->
<!DOCTYPE svg PUBLIC "-//W3C//DTD SVG 1.1//EN" "http://www.w3.org/Graphics/SVG/1.1/DTD/svg11.dtd">
<svg version="1.1" id="Layer_1" xmlns="http://www.w3.org/2000/svg" xmlns:xlink="http://www.w3.org/1999/xlink" x="0px" y="0px"
	 viewBox="0 0 500 500" enable-background="new 0 0 500 500" xml:space="preserve">
<g>
	<path fill="#53A8C7" d="M248.4,212.5c1.6,0,3.1,0,4.7-1.6c1.6-1.6,1.6-3.1,1.6-4.7v-37.5c0-1.6,0-3.1-1.6-3.1
		c-1.6-1.6-3.1-1.6-4.7-1.6c-1.6,0-3.1,0-4.7,1.6c-1.6,1.6-1.6,1.6-1.6,3.1v37.5c0,1.6,0,3.1,1.6,4.7
		C243.8,210.9,245.3,212.5,248.4,212.5z"/>
	<path fill="#53A8C7" d="M279.7,282.8c-1.6,0-3.1,0-6.2,1.6c-1.6,1.6-3.1,3.1-4.7,4.7v-28.1h-12.5v85.9h12.5v-4.7
		c1.6,1.6,3.1,3.1,4.7,4.7c1.6,1.6,4.7,1.6,6.2,1.6c3.1,0,6.2-1.6,7.8-3.1c1.6-3.1,3.1-6.2,3.1-10.9V300c0-4.7-1.6-9.4-3.1-12.5
		C285.9,282.8,282.8,282.8,279.7,282.8z M278.1,331.2c0,1.6,0,3.1-1.6,4.7c0,1.6-1.6,1.6-3.1,1.6s-1.6,0-3.1,0
		c-1.6,0-1.6-1.6-3.1-1.6v-39.1c1.6-1.6,1.6-1.6,3.1-1.6c1.6,0,1.6,0,3.1,0s3.1,0,4.7,1.6s1.6,3.1,1.6,4.7v29.7H278.1z"/>
	<polygon fill="#53A8C7" points="160.9,273.4 175,273.4 175,346.9 189.1,346.9 189.1,273.4 204.7,273.4 204.7,260.9 160.9,260.9 	
		"/>
	<path fill="#53A8C7" d="M232.8,331.2c-1.6,1.6-3.1,3.1-4.7,3.1c-1.6,1.6-3.1,1.6-3.1,1.6c-1.6,0-1.6,0-3.1-1.6c0,0,0-1.6,0-3.1
		v-48.4h-12.5v53.1c0,3.1,0,6.2,1.6,7.8s3.1,3.1,6.2,3.1c3.1,0,4.7,0,7.8-1.6c3.1-1.6,4.7-3.1,7.8-6.2v6.2h12.5v-64.1h-12.5V331.2z"
		/>
	<path fill="#53A8C7" d="M250,0C112.5,0,0,112.5,0,250s112.5,250,250,250s250-112.5,250-250S387.5,0,250,0z M279.7,153.1h14.1v53.1
		c0,1.6,0,3.1,1.6,3.1c0,0,1.6,1.6,3.1,1.6s3.1,0,4.7-1.6c1.6-1.6,3.1-1.6,4.7-3.1v-53.1h14.1v70.3h-14.1v-7.8
		c-3.1,3.1-4.7,4.7-7.8,6.2c-3.1,1.6-6.2,1.6-7.8,1.6c-3.1,0-6.2-1.6-7.8-3.1c-1.6-1.6-3.1-4.7-3.1-9.4v-57.8H279.7z M226.6,168.8
		c0-4.7,1.6-9.4,6.2-12.5c3.1-3.1,9.4-4.7,15.6-4.7c6.2,0,10.9,1.6,14.1,4.7s6.2,7.8,6.2,12.5v35.9c0,6.2-1.6,10.9-6.2,14.1
		c-3.1,3.1-9.4,4.7-15.6,4.7c-6.2,0-10.9-1.6-15.6-4.7c-3.1-3.1-6.2-7.8-6.2-14.1v-35.9H226.6z M189.1,128.1l10.9,37.5h1.6l9.4-37.5
		h15.6l-18.8,54.7v39.1h-15.6v-37.5l-20.3-56.3H189.1z M375,326.6c0,25-20.3,45.3-45.3,45.3H170.3c-25,0-45.3-20.3-45.3-45.3v-35.9
		c0-25,20.3-45.3,45.3-45.3h159.4c25,0,45.3,20.3,45.3,45.3L375,326.6L375,326.6z"/>
	<path fill="#53A8C7" d="M317.2,281.2c-6.2,0-10.9,1.6-14.1,4.7c-3.1,3.1-4.7,7.8-4.7,14.1v28.1c0,6.2,1.6,10.9,4.7,14.1
		s7.8,4.7,14.1,4.7c6.2,0,10.9-1.6,14.1-4.7c3.1-3.1,4.7-7.8,4.7-14.1V325h-12.5v3.1c0,3.1,0,6.2-1.6,7.8s-1.6,1.6-4.7,1.6
		c-1.6,0-3.1,0-4.7-1.6c-1.6-1.6-1.6-3.1-1.6-6.2v-12.5h23.4v-15.6c0-6.2-1.6-10.9-4.7-14.1C328.1,282.8,323.4,281.2,317.2,281.2z
		 M321.9,306.2h-10.9V300c0-3.1,0-4.7,1.6-6.2c1.6-1.6,1.6-1.6,4.7-1.6c1.6,0,3.1,0,4.7,1.6c1.6,1.6,1.6,3.1,1.6,6.2v6.2H321.9z"/>
</g>
<rect x="97" y="106" fill="#53A8C7" width="305" height="288"/>
<path fill="#EDEAE7" d="M88.7,305.8c0.8,0,1.4-0.6,1.5-1.4l4-31.4l-4-32.1c-0.1-0.8-0.7-1.4-1.5-1.4c-0.7,0-1.4,0.6-1.5,1.4
	L83.7,273l3.5,31.4C87.3,305.2,87.9,305.8,88.7,305.8z M76.9,292.5L76.9,292.5L76.9,292.5L76.9,292.5z M75.5,293.9
	c0.7,0,1.3-0.6,1.4-1.4L80,273l-3.1-19.8c-0.1-0.8-0.7-1.4-1.4-1.4c-0.7,0-1.3,0.6-1.4,1.4L71.5,273l2.6,19.5
	C74.2,293.3,74.8,293.9,75.5,293.9z M104.5,234.9c-0.1-1-0.9-1.8-1.8-1.8c-0.9,0-1.7,0.7-1.8,1.8c0,0-3.3,38.1-3.3,38.1l3.3,36.7
	c0.1,1,0.9,1.8,1.8,1.8c0.9,0,1.7-0.7,1.8-1.7l3.8-36.7L104.5,234.9z M116.9,312.9c1.1,0,2-0.9,2.1-2.1l0,0l3.6-37.8l-3.6-39.1
	c-0.1-1.2-1-2.1-2.1-2.1c-1.1,0-2,0.9-2.1,2.1l-3.1,39.1l3.1,37.8C114.9,312,115.8,312.9,116.9,312.9z M131.1,313.5
	c1.3,0,2.3-1,2.4-2.4l0,0l3.4-38.1l-3.4-36.3c-0.1-1.3-1.1-2.3-2.4-2.3c-1.3,0-2.3,1-2.4,2.4l-3,36.3l3,38.1
	C128.8,312.5,129.8,313.5,131.1,313.5z M151.4,273l-3.2-59c-0.1-1.5-1.3-2.7-2.7-2.7c-1.4,0-2.6,1.2-2.7,2.7l-2.8,59l2.8,38.1
	c0.1,1.5,1.3,2.7,2.7,2.7c1.4,0,2.6-1.2,2.7-2.7v0L151.4,273z M160,313.9c1.6,0,2.9-1.3,3-3v0l3-37.9l-3-72.5c-0.1-1.7-1.4-3-3-3
	c-1.6,0-2.9,1.3-3,3l-2.6,72.5l2.6,37.9C157.1,312.6,158.4,313.9,160,313.9z M174.6,191.2c-1.8,0-3.3,1.4-3.3,3.3l-2.4,78.5
	l2.4,37.5c0.1,1.8,1.5,3.3,3.3,3.3c1.8,0,3.2-1.4,3.3-3.3v0l2.7-37.5l-2.7-78.5C177.8,192.6,176.4,191.2,174.6,191.2z M189.3,313.9
	c2,0,3.5-1.6,3.6-3.6v0l2.5-37.3l-2.5-81.2c-0.1-2-1.7-3.6-3.6-3.6c-2,0-3.6,1.6-3.6,3.6l-2.3,81.2l2.3,37.3
	C185.8,312.3,187.3,313.9,189.3,313.9z M204.2,313.8c2.1,0,3.9-1.7,3.9-3.9v0l2.3-36.9l-2.3-79.1c-0.1-2.2-1.8-3.9-3.9-3.9
	c-2.2,0-3.9,1.7-3.9,3.9l-2.1,79.1l2.1,36.9C200.3,312.1,202,313.8,204.2,313.8z M225.4,273l-2.1-76.3c-0.1-2.3-1.9-4.2-4.2-4.2
	c-2.3,0-4.2,1.8-4.2,4.2L213,273l1.9,36.7c0,2.3,1.9,4.2,4.2,4.2c2.3,0,4.2-1.9,4.2-4.2v0L225.4,273z M234.2,314
	c2.5,0,4.5-2,4.5-4.5v0l1.9-36.4l-1.9-90.7c0-2.5-2.1-4.5-4.5-4.5c-2.5,0-4.5,2-4.5,4.5l-1.7,90.7c0,0.1,1.7,36.5,1.7,36.5
	C229.7,311.9,231.7,314,234.2,314z M249.2,169.3c-2.6,0-4.8,2.2-4.8,4.8l-2,98.9l2,35.9c0,2.6,2.2,4.8,4.8,4.8
	c2.6,0,4.8-2.2,4.8-4.8v0l2.2-35.9l-2.2-98.9C254,171.4,251.8,169.3,249.2,169.3z M262.9,314c0.1,0,121,0.1,121.7,0.1
	c24.3,0,43.9-19.7,43.9-43.9c0-24.3-19.7-43.9-43.9-43.9c-6,0-11.8,1.2-17,3.4C364.1,190,331,159,290.5,159
	c-9.9,0-19.6,1.9-28.1,5.2c-3.3,1.3-4.2,2.6-4.2,5.2v139.4C258.2,311.5,260.3,313.7,262.9,314z"/>
</svg>
