<?xml version="1.0" encoding="utf-8"?>
<!-- Generator: Adobe Illustrator 18.0.0, SVG Export Plug-In . SVG Version: 6.00 Build 0)  -->
<!DOCTYPE svg PUBLIC "-//W3C//DTD SVG 1.1//EN" "http://www.w3.org/Graphics/SVG/1.1/DTD/svg11.dtd">
<svg version="1.1" id="Layer_1" xmlns="http://www.w3.org/2000/svg" xmlns:xlink="http://www.w3.org/1999/xlink" x="0px" y="0px"
	 viewBox="0 0 420 469" enable-background="new 0 0 420 469" xml:space="preserve">
<g>
	<path fill="#53A8C7" d="M0,132.4V8.4h18.6c8.3,0,14.9,0.6,19.8,1.9c5,1.3,9.2,3.5,12.6,6.5c3.5,3.2,6.2,7.1,8.3,11.8
		c2.1,4.8,3.1,9.6,3.1,14.5c0,8.9-3.4,16.4-10.2,22.6c6.6,2.2,11.8,6.2,15.6,11.8c3.9,5.6,5.8,12,5.8,19.4c0,9.7-3.4,17.9-10.3,24.6
		c-4.1,4.1-8.8,7-13.9,8.6c-5.6,1.6-12.7,2.3-21.1,2.3H0z M18.7,61.7h5.9c7,0,12.1-1.5,15.3-4.6c3.2-3.1,4.9-7.6,4.9-13.6
		c0-5.8-1.7-10.3-5-13.3c-3.3-3-8.1-4.5-14.5-4.5h-6.6V61.7z M18.7,114.9h11.6c8.5,0,14.7-1.7,18.6-5c4.2-3.6,6.3-8.1,6.3-13.7
		c0-5.4-2-9.9-6-13.5c-3.9-3.6-10.9-5.4-21-5.4h-9.5V114.9z"/>
	<path fill="#53A8C7" d="M232.2,26h-49.7v29.8h48.3v17.6h-48.3v41.4h49.7v17.6h-68.4V8.4h68.4V26z"/>
	<path fill="#53A8C7" d="M310.5,132.4V0L401,94.6V8.4h18.7V140l-90.4-94.4v86.8H310.5z"/>
	<path fill="#53A8C7" d="M24.8,172.9v106.4h36.5v17.6H6.1v-124H24.8z"/>
	<path fill="#53A8C7" d="M134.6,234.4c0-17.5,6.4-32.4,19.2-45c12.7-12.5,28.1-18.8,45.9-18.8c17.7,0,32.8,6.3,45.5,19
		c12.7,12.6,19,27.8,19,45.5c0,17.8-6.4,33-19.1,45.4c-12.8,12.5-28.2,18.7-46.3,18.7c-16,0-30.4-5.5-43.1-16.6
		C141.6,270.3,134.6,254.2,134.6,234.4z M153.5,234.6c0,13.7,4.6,25,13.8,33.8c9.2,8.8,19.7,13.2,31.7,13.2c13,0,24-4.5,32.9-13.5
		c8.9-9.1,13.4-20.2,13.4-33.2c0-13.2-4.4-24.3-13.3-33.2c-8.8-9-19.7-13.5-32.6-13.5c-12.9,0-23.8,4.5-32.7,13.5
		C157.9,210.6,153.5,221.5,153.5,234.6z"/>
	<path fill="#53A8C7" d="M346.4,296.9v-124H365c8.3,0,14.9,0.6,19.8,1.9c5,1.3,9.2,3.5,12.6,6.5c3.5,3.2,6.2,7.1,8.3,11.8
		c2.1,4.8,3.1,9.6,3.1,14.5c0,8.9-3.4,16.4-10.2,22.6c6.6,2.2,11.8,6.2,15.6,11.8c3.9,5.6,5.8,12,5.8,19.4c0,9.7-3.4,17.9-10.3,24.6
		c-4.1,4.1-8.8,7-13.9,8.6c-5.6,1.6-12.7,2.3-21.1,2.3H346.4z M365.1,226.2h5.9c7,0,12.1-1.5,15.3-4.6c3.2-3.1,4.9-7.6,4.9-13.6
		c0-5.8-1.7-10.3-5-13.3c-3.3-3-8.1-4.5-14.5-4.5h-6.6V226.2z M365.1,279.4h11.6c8.5,0,14.7-1.7,18.6-5c4.2-3.6,6.3-8.1,6.3-13.7
		c0-5.4-2-9.9-6-13.5c-3.9-3.6-10.9-5.4-21-5.4h-9.5V279.4z"/>
	<path fill="#53A8C7" d="M0,461.4v-124h18.6c8.3,0,14.9,0.6,19.8,1.9c5,1.3,9.2,3.5,12.6,6.5c3.5,3.2,6.2,7.1,8.3,11.8
		c2.1,4.8,3.1,9.6,3.1,14.5c0,8.9-3.4,16.4-10.2,22.6c6.6,2.2,11.8,6.2,15.6,11.8c3.9,5.6,5.8,12,5.8,19.4c0,9.7-3.4,17.9-10.3,24.6
		c-4.1,4.1-8.8,7-13.9,8.6c-5.6,1.6-12.7,2.3-21.1,2.3H0z M18.7,390.7h5.9c7,0,12.1-1.5,15.3-4.6c3.2-3.1,4.9-7.6,4.9-13.6
		c0-5.8-1.7-10.3-5-13.3c-3.3-3-8.1-4.5-14.5-4.5h-6.6V390.7z M18.7,443.8h11.6c8.5,0,14.7-1.7,18.6-5c4.2-3.6,6.3-8.1,6.3-13.7
		c0-5.4-2-9.9-6-13.5c-3.9-3.6-10.9-5.4-21-5.4h-9.5V443.8z"/>
	<path fill="#53A8C7" d="M224.7,431.3h-53.1l-13.8,30.1h-20.2L199,329.6l59.2,131.8h-20.5L224.7,431.3z M217.1,413.7l-18.4-42.2
		l-19.3,42.2H217.1z"/>
	<path fill="#53A8C7" d="M310.5,461.4V329l90.4,94.6v-86.2h18.7V469l-90.4-94.4v86.8H310.5z"/>
</g>
</svg>
